<svg height="297mm" viewBox="0 0 210 297" width="210mm" xmlns="http://www.w3.org/2000/svg"><g fill="#1e6c41"><text font-family="Arial Rounded MT Bold" font-size="25.4" stroke-width=".264583" word-spacing=".627062" x="22.182611" xml:space="preserve" y="75.895699"><tspan fill="#1e6c41" font-family="Arial Rounded MT Bold" font-size="25.4" stroke-width=".264583" x="22.182611" y="75.895699">LEER  EXCEL</tspan></text><text font-family="sans-serif" font-size="12.7" stroke-width=".264583" word-spacing="0" x="72.05938" y="24.245947"><tspan fill="#1e6c41" font-family="Arial Rounded MT Bold" font-size="12.7" font-weight="bold" stroke-width=".264583" x="72.05938" y="24.245947">SOFTWIJS</tspan></text><text font-family="sans-serif" font-size="12.7" stroke-width=".264583" word-spacing="0" x="65.03965" y="279.57498"><tspan fill="#1e6c41" font-size="12.7" stroke-width=".264583" x="65.03965" y="279.57498">Ben Welman</tspan></text><path d="m.427507 135h210v120h-210z" fill-rule="evenodd"/></g><rect fill="none" height="81.471069" rx=".892969" width="103.88319" x="19.971046" y="161.48686"/><path d="m104.26889 44.255993h29.25267v15.026711h-29.25267zm35.25 0h29.25267v14.995461h-29.25267zm-35.25-21.78125h29.25267v15.745461h-29.25267zm35.25 0h29.25267v15.745461h-29.25267zm-35.25-21.749999h29.25267v15.745461h-29.25267zm35.25 0h29.25267v15.745461h-29.25267zm-35.25-21.75h29.25267v15.745461h-29.25267zm35.25 0h29.25267v15.745461h-29.25267zm-35.25-21.75h29.25267v15.745461h-29.25267zm35.25 0h29.25267v15.745461h-29.25267zm-36.26889-17.974743v5.96875h78.28125v126.78125h-78.28125v6h77.78125c3.60618 0 6.53125-2.92507 6.53125-6.53125v-125.6875c0-3.606183-2.92507-6.53125-6.53125-6.53125z" fill="#fff" transform="matrix(.51919954 0 0 .51919954 12.180345 190.48134)"/><path d="m68.691979 150-54.191458 9.63764v70.57869l54.158998 9.78367zm-17.328288 29.04274-7.755537 15.94916 7.966467 16.04649-7.203905-.42184-4.737691-11.7469-4.640339 11.21149-6.343979-.35697 7.447279-14.73227-7.074098-14.89454 6.863167-.3245 3.991338 10.8545 4.802604-11.27636z" fill="#fff"/></svg>